<svg xmlns="http://www.w3.org/2000/svg" xmlns:xlink="http://www.w3.org/1999/xlink" width="29.586cm" height="710.665" viewBox="2.479 0.197 32.065 19"><rect width="29.486" height="18.703" x="2.529" y=".247" fill="#FFF" stroke="none" stroke-width="0"/><rect width="29.486" height="18.703" x="2.529" y=".247" fill="none" stroke="#000" stroke-width=".1"/><image width="4.879" height="4.879" x="4.487" y="1.135" xlink:href="file:///home/frank/test/vortraege/vortraege/beuth/computer.png"/><image width="4.879" height="4.879" x="3.639" y="7.379" xlink:href="file:///home/frank/test/vortraege/vortraege/beuth/computer.png"/><path fill="none" stroke="#000" stroke-width=".1" d="M 10.812,10.928 A 1.298,1.298 0 0,0 12.899,12.353"/><path fill="none" stroke="#000" stroke-width=".1" d="M 12.937,12.329 A 3.469,3.469 0 0,0 18.289,12.203"/><path fill="none" stroke="#000" stroke-width=".1" d="M 18.219,12.238 A 3.831,3.831 0 0,0 22.108,8.844"/><path fill="none" stroke="#000" stroke-width=".1" d="M 22.072,8.915 A 1.571,1.571 0 0,0 20.941,6.122"/><path fill="none" stroke="#000" stroke-width=".1" d="M 11.961,7.571 A 1.878,1.878 0 0,0 10.829,10.966"/><path fill="none" stroke="#000" stroke-width=".1" d="M 15.390,5.662 A 2.121,2.121 0 0,0 11.996,7.607"/><path fill="none" stroke="#000" stroke-width=".1" d="M 18.749,4.637 A 1.760,1.760 0 1,0 15.426,5.680"/><path fill="none" stroke="#000" stroke-width=".1" d="M 20.976,6.086 A 1.326,1.326 0 0,0 18.714,4.708"/><image width="4.879" height="4.879" x="5.725" y="13.365" xlink:href="file:///home/frank/test/vortraege/vortraege/beuth/computer.png"/><line x1="8.517" x2="10.115" y1="9.818" y2="9.82" stroke="#000" stroke-width=".1"/><polyline fill="none" stroke="#000" stroke-width=".1" points="9.14 2.757 9.14 2.762 13.269 2.762 13.269 5.413"/><line x1="8.164" x2="8.164" y1="15.804" y2="15.804" stroke="#000" stroke-width=".1"/><line x1="10.703" x2="13.516" y1="15.806" y2="15.807" stroke="#000" stroke-width=".1"/><line x1="13.516" x2="13.49" y1="15.772" y2="12.794" stroke="#000" stroke-width=".1"/><image width="1.423" height="1.873" x="5.909" y="1.732" xlink:href="file:///home/frank/projekte/opensourcepress/onyx-neon/dpmb/praxis/apt-cache/debian_logo.png"/><image width="1.423" height="1.873" x="5.025" y="7.99" xlink:href="file:///home/frank/projekte/opensourcepress/onyx-neon/dpmb/praxis/apt-cache/debian_logo.png"/><image width="1.423" height="1.873" x="7.154" y="13.916" xlink:href="file:///home/frank/projekte/opensourcepress/onyx-neon/dpmb/praxis/apt-cache/debian_logo.png"/><polyline fill="none" stroke="#000" stroke-width=".1" points="22.858 3.323 22.858 3.151 21.882 3.151 21.882 5.802"/><line x1="23.494" x2="25.828" y1="7.53" y2="7.53" stroke="#000" stroke-width=".1"/><image width="1.584" height="2.085" x="27.087" y="1.379" xlink:href="file:///home/frank/projekte/opensourcepress/onyx-neon/dpmb/praxis/apt-cache/debian_logo.png"/><text x="26.676" y="7.707" fill="#000" font-family="Fira Code" font-size=".88" font-style="normal" font-weight="700" text-anchor="start">Internet</text><rect width="2.243" height="3.365" x="22.908" y="1.343" fill="#D9D9CD" stroke="none" stroke-width="0"/><rect width="2.243" height="3.365" x="22.908" y="1.343" fill="none" stroke="#000" stroke-width=".1"/><rect width="2.243" height="3.365" x="22.908" y="1.343" fill="none" stroke="#000" stroke-width=".01"/><rect width="1.795" height="1.346" x="23.021" y="1.455" fill="#D9D9CD" stroke="none" stroke-width="0"/><rect width="1.795" height="1.346" x="23.021" y="1.455" fill="none" stroke="#000" stroke-width=".1"/><rect width="1.795" height="1.346" x="23.021" y="1.455" fill="none" stroke="#000" stroke-width=".01"/><line x1="23.021" x2="24.815" y1="1.904" y2="1.904" stroke="#000" stroke-width=".01"/><line x1="24.815" x2="23.021" y1="2.352" y2="2.352" stroke="#000" stroke-width=".01"/><rect width="1.234" height=".673" x="23.245" y="2.913" fill="#D9D9CD" stroke="none" stroke-width="0"/><rect width="1.234" height=".673" x="23.245" y="2.913" fill="none" stroke="#000" stroke-width=".1"/><rect width="1.234" height=".673" x="23.245" y="2.913" fill="none" stroke="#000" stroke-width=".01"/><line x1="22.908" x2="25.152" y1="3.923" y2="3.923" stroke="#000" stroke-width=".01"/><rect width=".112" height=".112" x="24.479" y="3.698" fill="#00CD00" stroke="none" stroke-width="0"/><rect width=".112" height=".112" x="24.479" y="3.698" fill="none" stroke="#000" stroke-width=".1"/><rect width=".112" height=".112" x="24.479" y="3.698" fill="none" stroke="#000" stroke-width=".01"/><rect width=".112" height=".112" x="24.703" y="3.698" fill="#CDCD00" stroke="none" stroke-width="0"/><rect width=".112" height=".112" x="24.703" y="3.698" fill="none" stroke="#000" stroke-width=".1"/><rect width=".112" height=".112" x="24.703" y="3.698" fill="none" stroke="#000" stroke-width=".01"/><rect width=".112" height=".112" x="24.928" y="3.698" fill="#CD0000" stroke="none" stroke-width="0"/><rect width=".112" height=".112" x="24.928" y="3.698" fill="none" stroke="#000" stroke-width=".1"/><rect width=".112" height=".112" x="24.928" y="3.698" fill="none" stroke="#000" stroke-width=".01"/><rect width=".224" height=".224" x="24.815" y="3.362" fill="#CDCDBD" stroke="none" stroke-width="0"/><rect width=".224" height=".224" x="24.815" y="3.362" fill="none" stroke="#000" stroke-width=".1"/><rect width=".224" height=".224" x="24.815" y="3.362" fill="none" stroke="#000" stroke-width=".01"/><line x1="23.245" x2="24.479" y1="3.25" y2="3.25" stroke="#000" stroke-width=".01"/><rect width=".337" height=".337" x="24.703" y="2.913" fill="#CDCDBD" stroke="none" stroke-width="0"/><rect width=".337" height=".337" x="24.703" y="2.913" fill="none" stroke="#000" stroke-width=".1"/><rect width=".337" height=".337" x="24.703" y="2.913" fill="none" stroke="#000" stroke-width=".01"/><rect width="1.57" height=".112" x="23.133" y="2.464" fill="#CDCDC1" stroke="none" stroke-width="0"/><rect width="1.57" height=".112" x="23.133" y="2.464" fill="none" stroke="#000" stroke-width=".1"/><rect width="1.57" height=".112" x="23.133" y="2.464" fill="none" stroke="#000" stroke-width=".01"/><line x1="23.357" x2="24.367" y1="3.025" y2="3.025" stroke="#000" stroke-width=".01"/><rect width=".561" height=".112" x="23.581" y="3.025" fill="#CDCDC1" stroke="none" stroke-width="0"/><rect width=".561" height=".112" x="23.581" y="3.025" fill="none" stroke="#000" stroke-width=".1"/><rect width=".561" height=".112" x="23.581" y="3.025" fill="none" stroke="#000" stroke-width=".01"/><line x1="24.479" x2="24.703" y1="2.689" y2="2.689" stroke="#000" stroke-width=".01"/><line x1="23.021" x2="25.04" y1="4.035" y2="4.035" stroke="#000" stroke-width=".01"/><line x1="25.04" x2="23.021" y1="4.147" y2="4.147" stroke="#000" stroke-width=".01"/><line x1="23.021" x2="25.04" y1="4.259" y2="4.259" stroke="#000" stroke-width=".01"/><line x1="25.04" x2="23.021" y1="4.596" y2="4.596" stroke="#000" stroke-width=".01"/><line x1="23.021" x2="25.04" y1="4.484" y2="4.484" stroke="#000" stroke-width=".01"/><line x1="25.04" x2="23.021" y1="4.371" y2="4.371" stroke="#000" stroke-width=".01"/><line x1="23.133" x2="23.245" y1="2.689" y2="2.689" stroke="#000" stroke-width=".01"/><line x1="23.357" x2="23.469" y1="2.689" y2="2.689" stroke="#000" stroke-width=".01"/><line x1="23.357" x2="23.469" y1="3.138" y2="3.138" stroke="#000" stroke-width=".01"/><line x1="24.255" x2="24.367" y1="3.138" y2="3.138" stroke="#000" stroke-width=".01"/><text x="26.259" y="4.607" fill="#000" font-family="Fira Code" font-size=".88" font-style="normal" font-weight="700" text-anchor="start">APT Cache</text></svg>